<svg xmlns="http://www.w3.org/2000/svg" viewBox="0 0 24 24" width="50" height="50">

<path fill="#F0F0F0" d="M20,2.88V7.62H17.75V9.87H15.5v4.25h2.25v2.25H20v4.75H15.25V18.87H13V16.62H8.75v4.5H4V2.88H8.75v4.5H13V5.12h2.25V2.88H20m0-1H15.25a1,1,0,0,0-1,1V4.12H13a1,1,0,0,0-1,1V6.38H9.75V2.88a1,1,0,0,0-1-1H4a1,1,0,0,0-1,1V21.12a1,1,0,0,0,1,1H8.75a1,1,0,0,0,1-1v-3.5H12v1.25a1,1,0,0,0,1,1h1.25v1.25a1,1,0,0,0,1,1H20a1,1,0,0,0,1-1V16.37a1,1,0,0,0-1-1H18.75V14.12a1,1,0,0,0-1-1H16.5V10.87h1.25a1,1,0,0,0,1-1V8.62H20a1,1,0,0,0,1-1V2.88a1,1,0,0,0-1-1Z"></path>

</svg>